<svg width="24" height="22" viewBox="0 0 24 22" fill="none" xmlns="http://www.w3.org/2000/svg">
<path d="M8.16198 11.8061V4.18792H9.51181L9.6797 12.0412C9.71142 13.5251 10.9234 14.7114 12.4076 14.7114C13.9145 14.7114 15.1361 13.4898 15.1361 11.9829V0H16.5498V11.8061C16.5498 14.1223 14.6721 16 12.3559 16C10.0397 16 8.16198 14.1223 8.16198 11.8061Z" fill="#003167"/>
<g filter="url(#filter0_d_725_710)">
<path d="M4 13.2081L8.56468 8.87839L9.03037 8.43812L9.45107 8.9149L11.2328 10.9315L18.1507 4.32537L17.5816 3.78201L20 3.37611L19.5748 5.68483L19.0056 5.14148L11.622 12.1901L11.1586 12.6325L10.7357 12.1536L8.95163 10.1348L4 13.2081Z" fill="#0076FF"/>
</g>
<path fill-rule="evenodd" clip-rule="evenodd" d="M15.1631 0V6.36349L16.5467 5.04054V0H15.1631ZM7.22835 9.33369V8.08376H5.84252V10.6459L7.22835 9.33369ZM9.55906 8.14175V4.17718H8.17323V8.43812L9.07312 7.57906L9.56356 8.13315L9.55906 8.14175ZM11.8875 9.48832V5.47007H10.5017V9.21128L11.2688 10.0703L11.8875 9.47973V9.48832ZM14.2182 7.2655V1.80403H12.8324V8.5906L14.2182 7.2698V7.2655Z" fill="#003167"/>
<defs>
<filter id="filter0_d_725_710" x="0" y="3.37611" width="24" height="17.8319" filterUnits="userSpaceOnUse" color-interpolation-filters="sRGB">
<feFlood flood-opacity="0" result="BackgroundImageFix"/>
<feColorMatrix in="SourceAlpha" type="matrix" values="0 0 0 0 0 0 0 0 0 0 0 0 0 0 0 0 0 0 127 0" result="hardAlpha"/>
<feOffset dy="4"/>
<feGaussianBlur stdDeviation="2"/>
<feComposite in2="hardAlpha" operator="out"/>
<feColorMatrix type="matrix" values="0 0 0 0 0 0 0 0 0 0 0 0 0 0 0 0 0 0 0.25 0"/>
<feBlend mode="normal" in2="BackgroundImageFix" result="effect1_dropShadow_725_710"/>
<feBlend mode="normal" in="SourceGraphic" in2="effect1_dropShadow_725_710" result="shape"/>
</filter>
</defs>
</svg>
